<svg width="576" height="649" viewBox="0 0 576 649" fill="none" xmlns="http://www.w3.org/2000/svg">
<g clip-path="url(#clip0_93_2800)">
<path d="M583.082 -7.08H-7.08197V656.08H583.082V-7.08Z" fill="white"/>
<path d="M203.229 349.233C203.229 349.233 250.572 336.501 250.572 333.68C250.572 330.86 249.687 331.368 249.155 328.701C248.612 325.951 248.978 322.954 247.94 320.429C246.877 317.857 244.469 316.004 242.947 313.715C241.401 311.414 240.598 308.487 238.65 306.54C236.703 304.593 233.776 303.779 231.474 302.245C229.184 300.711 227.331 298.316 224.758 297.254C222.232 296.204 219.222 296.581 216.484 296.038C213.816 295.507 211.184 294.009 208.363 294.009C205.542 294.009 202.91 295.507 200.243 296.038C197.492 296.581 194.494 296.215 191.969 297.254C189.395 298.316 187.542 300.723 185.252 302.245C182.951 303.791 180.024 304.593 178.076 306.54C176.129 308.487 175.314 311.414 173.78 313.715C173.673 313.868 173.567 314.01 173.449 314.163C172.54 312.688 170.864 311.614 169.908 310.187C168.81 308.558 168.515 306.245 167.134 304.865C165.753 303.484 163.452 303.177 161.811 302.092C160.194 301.006 159.037 298.988 157.22 298.233C155.426 297.49 153.183 298.092 151.235 297.714C149.347 297.336 147.506 295.92 145.511 295.92C143.516 295.92 141.675 297.348 139.786 297.714C137.839 298.103 135.596 297.49 133.802 298.233C131.972 298.988 130.828 301.006 129.21 302.092C127.582 303.189 125.268 303.484 123.887 304.865C122.506 306.245 122.199 308.546 121.113 310.187C120.028 311.803 118.009 312.96 117.254 314.777C116.51 316.57 117.112 318.812 116.734 320.759C116.357 322.647 114.94 324.488 114.94 326.482C114.94 328.477 116.369 330.317 116.734 332.205C117.124 334.152 116.51 336.394 117.254 338.188C118.009 340.017 120.028 341.162 121.113 342.778C122.211 344.407 122.506 346.719 123.887 348.1C125.268 349.481 127.57 349.787 129.21 350.873C130.828 351.959 131.984 353.976 133.802 354.732C135.596 355.475 137.839 354.873 139.786 355.251C141.675 355.628 143.516 357.044 145.511 357.044C147.506 357.044 149.347 355.617 151.235 355.251C153.183 354.861 155.426 355.475 157.22 354.732C159.049 353.976 160.194 351.959 161.811 350.873C163.44 349.776 165.753 349.481 167.134 348.1C167.406 347.829 167.642 347.498 167.843 347.168C168.008 349.245 168.008 351.357 168.775 353.209C169.837 355.782 172.245 357.634 173.768 359.924C175.314 362.225 176.117 365.151 178.064 367.098C180.012 369.045 182.939 369.859 185.241 371.393C186.102 371.971 203.229 349.233 203.229 349.233Z" fill="black"/>
<path d="M28.0092 412.681C28.0092 412.681 27.9384 412.681 27.903 412.681C26.7817 412.622 25.92 411.667 25.9791 410.557C31.0309 311.319 112.934 233.581 212.412 233.581C237.612 233.581 262.056 238.513 285.073 248.248C286.1 248.685 286.584 249.877 286.147 250.903C285.71 251.93 284.518 252.414 283.491 251.977C260.982 242.455 237.057 237.628 212.4 237.628C115.07 237.628 34.9614 313.679 30.0158 410.758C29.9568 411.844 29.0597 412.681 27.9974 412.681H28.0092Z" fill="#DBDBDB"/>
<path d="M118.552 581.233C118.198 581.233 117.844 581.138 117.525 580.949C80.7227 559.19 52.2768 525.218 37.4164 485.287C37.0269 484.237 37.5581 483.068 38.6086 482.679C39.6591 482.29 40.8276 482.821 41.2171 483.871C55.7587 522.929 83.5909 556.169 119.591 577.457C120.559 578.023 120.877 579.274 120.299 580.23C119.921 580.867 119.249 581.221 118.552 581.221V581.233Z" fill="#DBDBDB"/>
<path d="M338.896 556.736C338.353 556.736 337.822 556.523 337.42 556.099C336.653 555.284 336.689 553.998 337.503 553.231C355.479 536.334 369.631 516.368 379.558 493.901C389.839 470.643 395.044 445.851 395.044 420.21C395.044 382.698 383.748 346.649 362.372 315.98C361.735 315.06 361.959 313.797 362.88 313.16C363.801 312.523 365.064 312.747 365.701 313.668C387.549 345.02 399.092 381.872 399.092 420.222C399.092 446.429 393.769 471.776 383.264 495.553C373.113 518.516 358.654 538.93 340.288 556.205C339.899 556.571 339.403 556.759 338.896 556.759V556.736Z" fill="#DBDBDB"/>
<path d="M77.1581 649C77.1581 649 30.0158 495.576 152.38 440.742L459.986 578.011L467.764 649H77.1581Z" fill="#62D84E"/>
<path d="M35.0557 649H271.145L254.927 588.926C254.927 583.699 250.076 579.451 244.104 579.451H123.309C101.709 579.451 81.5016 588.761 69.2971 604.349L35.0439 649H35.0557Z" fill="#009156"/>
<path d="M383.677 504.12C396.689 504.12 407.237 493.575 407.237 480.567C407.237 467.559 396.689 457.014 383.677 457.014C370.666 457.014 360.118 467.559 360.118 480.567C360.118 493.575 370.666 504.12 383.677 504.12Z" fill="#032D42"/>
<path d="M394.961 472.555L382.674 486.054L376.147 478.053C375.037 476.685 373.043 476.46 371.65 477.534L382.509 490.986L397.334 474.643L394.973 472.555H394.961Z" fill="white"/>
<path d="M437.854 547.65L481.09 563.993L469.11 582.495L426.24 574.967L437.854 547.65Z" fill="#D7886E"/>
<path d="M515.343 531.897L479.06 554.293L467.717 555.343L467.009 557.149L466.666 558.128C465.569 561.279 466.454 564.772 468.921 567.002C469.287 567.332 469.688 567.686 470.113 568.052L465.876 591.133C465.439 594.555 467.622 595.416 470.821 596.714L491.028 606.378L530.333 533.926C530.333 533.926 525.293 532.274 521.764 531.118C519.616 530.41 517.279 530.693 515.355 531.885L515.343 531.897Z" fill="#D6D7D7"/>
<path d="M515.343 531.897L479.06 554.293L467.717 555.343L467.009 557.149L466.666 558.128C465.569 561.279 466.454 564.772 468.921 567.002C469.287 567.332 469.688 567.686 470.113 568.052L465.876 591.133C465.439 594.555 467.622 595.416 470.821 596.714L491.028 606.378L530.333 533.926C530.333 533.926 525.293 532.274 521.764 531.118C519.616 530.41 517.279 530.693 515.355 531.885L515.343 531.897Z" fill="#DBDBDB"/>
<path d="M471.694 579.474H501.805C539.693 579.474 570.453 610.225 570.453 648.103V649H403.035V648.103C403.035 610.225 433.794 579.474 471.683 579.474H471.694Z" fill="#032D42"/>
<path d="M360.649 624.55L382.957 618.308L368.982 582.849L341.492 593.28L358.619 621.235L360.649 624.55Z" fill="#D7886E"/>
<path d="M437.854 547.65L346.273 513.819L343.617 505.736C341.292 498.267 334.717 492.921 326.927 492.166L154.292 480.354L172.363 513.725L238.084 512.179C270.602 511.459 295.283 519.495 313.531 547.685V547.662L313.826 548.157C314.581 549.337 315.325 550.553 316.056 551.803L341.481 593.304L368.959 582.861L361.983 561.633L426.216 574.979L437.843 547.662L437.854 547.65Z" fill="#009156"/>
<path d="M313.542 547.65V547.673C313.649 547.827 313.743 547.98 313.849 548.145L313.542 547.65Z" fill="#D2D0CF"/>
<path d="M360.649 624.55L358.619 621.235L341.493 593.28L316.068 551.78L313.837 548.134C313.743 547.98 313.637 547.827 313.542 547.662L324.295 648.988H375.628L360.649 624.539V624.55Z" fill="#62D84E"/>
<path d="M428.978 636.657L393.167 621.565L385.743 610.792H383.795L382.745 610.839C379.405 610.98 376.454 613.093 375.273 616.22C375.096 616.692 374.919 617.199 374.73 617.718L358.607 621.223L375.616 648.988H433.464L433.44 642.085C433.369 639.466 431.516 637.578 428.967 636.645L428.978 636.657Z" fill="#DBDBDB"/>
<path d="M250.572 333.68C250.572 333.68 201.128 344.56 201.517 344.678C201.694 344.725 201.199 344.595 201.14 344.572C197.032 343.191 192.712 345.008 191.496 348.631C190.706 350.967 191.367 353.622 193.031 355.569L185.016 368.809C182.313 373.269 178.418 376.88 173.768 379.24L173.001 379.63L163.098 391.524L215.906 434.146L207.844 411.82C205.342 405.908 206.132 399.111 209.945 393.943L210.488 393.2L218.03 384.208C236.679 386.533 242.203 369.092 242.203 369.092C242.203 369.092 245.154 368.785 245.591 368.549C246.665 367.971 246.405 366.827 246.134 365.658L245.189 361.552C245.189 361.552 250.088 338.566 250.288 337.445C250.525 335.993 250.536 335.096 250.572 333.704V333.68Z" fill="#D7886E"/>
<path d="M245.414 473.664L285.911 479.351C299.343 482.101 299.792 487.611 299.792 487.458V487.611L245.426 490.951V473.664H245.414Z" fill="#D7886E"/>
<path d="M343.098 405.849C343.098 405.849 320.14 487.67 320.199 487.741H244.765C240.338 487.8 236.809 489.346 236.868 493.759H320.908C323.528 493.724 325.782 491.918 326.396 489.37L347.689 413.307C348.492 409.979 346.438 406.64 343.109 405.837L343.098 405.849Z" fill="#032D42"/>
<path d="M343.098 405.849C343.098 405.849 320.14 487.67 320.199 487.741H244.765C240.338 487.8 236.809 489.346 236.868 493.759H320.908C323.528 493.724 325.782 491.918 326.396 489.37L347.689 413.307C348.492 409.979 346.438 406.64 343.109 405.837L343.098 405.849Z" fill="#032D42"/>
<path d="M228.193 445.32L173.036 379.641C125.221 398.333 139.609 457.439 150.669 447.373C151.07 447.008 218.089 484.225 218.089 484.225L217.369 471.693C223.814 470.501 229.114 465.675 230.742 459.138C231.934 454.383 231.002 449.344 228.193 445.32Z" fill="#009156"/>
<path d="M203.087 467.54C201.116 467.374 199.381 466.147 198.578 464.33L191.721 448.907C195.037 444.14 196.997 438.346 196.997 432.092C196.997 415.82 183.801 402.628 167.524 402.628C151.247 402.628 138.051 415.82 138.051 432.092C138.051 437.497 139.515 442.559 142.052 446.913C142.194 447.751 116.628 506.963 164.325 526.091C164.325 526.091 169.79 527.979 177.864 528.994C202.792 532.145 226.706 518.079 236.29 494.857L237.388 491.576L245.426 490.939V473.652L203.099 467.528L203.087 467.54Z" fill="#032D42"/>
<path d="M237.364 343.297C232.725 343.297 228.677 345.834 226.517 349.599L199.346 337.787L198.531 339.651L225.643 351.439C225.136 352.808 224.841 354.271 224.841 355.817C224.841 362.72 230.459 368.325 237.352 368.325C244.245 368.325 249.864 362.708 249.864 355.817C249.864 348.926 244.245 343.309 237.352 343.309L237.364 343.297ZM237.364 366.296C231.58 366.296 226.871 361.587 226.871 355.817C226.871 350.047 231.58 345.339 237.364 345.339C243.148 345.339 247.845 350.047 247.845 355.817C247.845 361.587 243.136 366.296 237.364 366.296Z" fill="#032D42"/>
<path d="M150.421 533.041H114.763L117.655 559.934H147.529L150.421 533.041Z" fill="white"/>
<path d="M117.655 559.934L119.756 579.451H145.428L148.981 546.482L117.655 559.934Z" fill="#5274FF"/>
<path d="M120.925 526.799H144.248C147.647 526.799 150.409 529.56 150.409 532.959V533.041H114.751V532.959C114.751 529.56 117.513 526.799 120.913 526.799H120.925Z" fill="#032D42"/>
<path d="M69.545 287.59H26.7109C24.1751 287.59 22.1194 289.645 22.1194 292.18V352.867C22.1194 355.402 24.1751 357.457 26.7109 357.457H69.545C72.0808 357.457 74.1364 355.402 74.1364 352.867V292.18C74.1364 289.645 72.0808 287.59 69.545 287.59Z" fill="#DBDBDB"/>
<path d="M66.8774 308.653H29.3902V311.791H66.8774V308.653Z" fill="#032D42"/>
<path d="M66.8774 320.193H29.3902V323.332H66.8774V320.193Z" fill="#032D42"/>
<path d="M66.8774 331.733H29.3902V334.872H66.8774V331.733Z" fill="#032D42"/>
<path d="M166.202 270.999C179.976 270.999 191.142 259.836 191.142 246.065C191.142 232.295 179.976 221.132 166.202 221.132C152.428 221.132 141.262 232.295 141.262 246.065C141.262 259.836 152.428 270.999 166.202 270.999Z" fill="#DBDBDB"/>
<path d="M167.713 237.782C167.182 238.159 167.064 238.903 167.441 239.434L171.195 244.626H157.326C156.677 244.626 156.146 245.157 156.146 245.806C156.146 246.455 156.677 246.986 157.326 246.986H171.313L167.465 252.024C167.064 252.544 167.17 253.287 167.689 253.688C167.902 253.853 168.161 253.936 168.409 253.936C168.763 253.936 169.117 253.771 169.353 253.476L175.09 245.971L169.365 238.053C168.988 237.522 168.244 237.404 167.713 237.782Z" fill="#032D42"/>
<path d="M166.202 230.867C157.822 230.867 150.999 237.687 150.999 246.065C150.999 254.443 157.822 261.264 166.202 261.264C174.582 261.264 181.405 254.443 181.405 246.065C181.405 237.687 174.582 230.867 166.202 230.867ZM166.202 258.892C159.132 258.892 153.372 253.134 153.372 246.065C153.372 238.997 159.132 233.239 166.202 233.239C173.272 233.239 179.032 238.997 179.032 246.065C179.032 253.134 173.272 258.892 166.202 258.892Z" fill="#032D42"/>
<path d="M29.0833 470.714C42.0883 470.714 52.6309 460.174 52.6309 447.173C52.6309 434.171 42.0883 423.632 29.0833 423.632C16.0784 423.632 5.53577 434.171 5.53577 447.173C5.53577 460.174 16.0784 470.714 29.0833 470.714Z" fill="#032D42"/>
<path d="M29.1187 446.123C32.8148 446.123 35.8111 443.127 35.8111 439.432C35.8111 435.737 32.8148 432.741 29.1187 432.741C25.4225 432.741 22.4262 435.737 22.4262 439.432C22.4262 443.127 25.4225 446.123 29.1187 446.123Z" fill="white"/>
<path d="M29.0833 448.801C23.158 448.778 18.3305 453.568 18.3069 459.492L39.7889 459.575C39.8125 453.651 35.0203 448.825 29.0951 448.801H29.0833Z" fill="white"/>
<path d="M218.431 587.9L208.906 566.376C208.328 565.067 209.308 563.603 210.748 563.651L225.443 564.087L218.431 587.911V587.9Z" fill="#032D42"/>
<path d="M256.839 570.329L247.314 548.806C246.736 547.496 244.989 547.237 244.056 548.334L234.496 559.509L256.839 570.341V570.329Z" fill="#032D42"/>
<path d="M262.021 649H315.041C315.041 649 318.547 637.342 319.999 630.568C322.123 620.727 320.306 610.237 315.006 601.54C302.27 580.643 267.687 580.749 261.065 581.032C261.077 577.976 260.487 574.861 259.165 571.875C254.172 560.583 240.952 555.473 229.656 560.476C218.361 565.468 213.25 578.684 218.254 589.976C219.128 591.947 220.261 593.717 221.583 595.286L262.033 649H262.021Z" fill="white"/>
<path d="M235.145 577.421C236.462 577.421 237.529 576.354 237.529 575.038C237.529 573.721 236.462 572.654 235.145 572.654C233.828 572.654 232.761 573.721 232.761 575.038C232.761 576.354 233.828 577.421 235.145 577.421Z" fill="#032D42"/>
<path d="M249.722 572.194C251.039 572.194 252.106 571.127 252.106 569.81C252.106 568.494 251.039 567.427 249.722 567.427C248.405 567.427 247.338 568.494 247.338 569.81C247.338 571.127 248.405 572.194 249.722 572.194Z" fill="#032D42"/>
<path d="M285.533 278.834C285.533 256.379 303.816 238.1 326.278 238.1V241.345C305.599 241.345 288.767 258.16 288.767 278.846C288.767 299.531 305.587 316.346 326.278 316.346C346.969 316.346 363.789 299.531 363.789 278.846H367.035C367.035 301.301 348.752 319.579 326.29 319.579C303.828 319.579 285.545 301.301 285.545 278.846L285.533 278.834Z" fill="#032D42"/>
<path d="M326.278 241.334V238.089C348.751 238.089 367.023 256.367 367.023 278.822H363.777C363.777 258.149 346.957 241.322 326.266 241.322L326.278 241.334Z" fill="#93A9FF"/>
<path d="M414.72 376.444C414.26 366.52 406.068 358.626 396.024 358.626C385.979 358.626 377.823 366.496 377.339 376.385H374.388C366.268 376.385 359.693 382.957 359.693 391.076C359.693 399.194 366.268 405.767 374.388 405.767H413.492C421.613 405.767 428.188 399.194 428.188 391.076C428.188 383.37 422.262 377.069 414.72 376.444Z" fill="#DBDBDB"/>
<path d="M384.409 393.636C385.967 393.636 387.23 392.374 387.23 390.816C387.23 389.258 385.967 387.996 384.409 387.996C382.851 387.996 381.588 389.258 381.588 390.816C381.588 392.374 382.851 393.636 384.409 393.636Z" fill="#032D42"/>
<path d="M393.934 393.636C395.492 393.636 396.755 392.374 396.755 390.816C396.755 389.258 395.492 387.996 393.934 387.996C392.376 387.996 391.113 389.258 391.113 390.816C391.113 392.374 392.376 393.636 393.934 393.636Z" fill="#032D42"/>
<path d="M403.46 393.636C405.018 393.636 406.281 392.374 406.281 390.816C406.281 389.258 405.018 387.996 403.46 387.996C401.902 387.996 400.639 389.258 400.639 390.816C400.639 392.374 401.902 393.636 403.46 393.636Z" fill="#032D42"/>
</g>
<defs>
<clipPath id="clip0_93_2800">
<rect width="576" height="649" fill="white"/>
</clipPath>
</defs>
</svg>
